<svg width="307" height="59" fill="none" xmlns="http://www.w3.org/2000/svg"><g clip-path="url(#clip0_26_10262)"><path d="M168.946 45.606a2.17 2.17 0 00.373 1.225c.245.363.593.646 1.001.813a2.26 2.26 0 002.435-.473c.312-.308.526-.7.612-1.128a2.17 2.17 0 00-.126-1.273 2.211 2.211 0 00-.822-.99 2.254 2.254 0 00-2.817.272c-.419.412-.655.97-.656 1.554zm-.102-3.694a2.25 2.25 0 001.237-.37 2.2 2.2 0 00.82-.986c.169-.401.213-.843.127-1.269a2.19 2.19 0 00-.609-1.124 2.257 2.257 0 00-2.427-.476 2.226 2.226 0 00-.999.808 2.18 2.18 0 00-.206 2.061c.112.267.276.509.483.713a2.233 2.233 0 001.574.643zM145.8 21.846c-.44 0-.87.13-1.236.373a2.2 2.2 0 00-.817.986 2.162 2.162 0 00-.124 1.269c.086.426.299.816.61 1.123a2.255 2.255 0 002.426.473 2.21 2.21 0 00.998-.808 2.17 2.17 0 00-.281-2.774 2.246 2.246 0 00-1.576-.642zm-3.09-5.873c.443.004.877-.123 1.247-.364.37-.24.659-.584.83-.987a2.184 2.184 0 00-.481-2.408 2.238 2.238 0 00-1.147-.604 2.262 2.262 0 00-1.294.13 2.229 2.229 0 00-1.001.819 2.19 2.19 0 00.285 2.781c.417.411.983.643 1.573.645l-.012-.012zm5.322 18.393c0-.436-.131-.862-.376-1.224a2.224 2.224 0 00-1.002-.81 2.261 2.261 0 00-2.433.477 2.175 2.175 0 00-.484 2.4c.169.402.455.746.822.988a2.257 2.257 0 002.819-.274c.419-.413.654-.973.654-1.557zm-.363-5.233a1.828 1.828 0 00-.318-1.023 1.867 1.867 0 00-.841-.677 1.895 1.895 0 00-2.036.407 1.834 1.834 0 00-.509.945c-.071.358-.033.729.11 1.065.143.337.383.624.691.826a1.889 1.889 0 002.36-.237 1.839 1.839 0 00.543-1.306zm-1.298-16.666c0 .349.105.69.301.979.196.29.475.516.802.649a1.81 1.81 0 001.946-.382 1.74 1.74 0 00.387-1.92 1.765 1.765 0 00-.658-.79 1.801 1.801 0 00-2.255.219 1.75 1.75 0 00-.523 1.245zm3.298 11.563c0 .434.131.859.375 1.22.244.36.592.642.998.809a2.256 2.256 0 002.426-.474 2.17 2.17 0 00.486-2.392 2.2 2.2 0 00-.817-.986 2.245 2.245 0 00-3.298.981c-.112.267-.17.553-.17.842zm-.113 10.342c0 .518.156 1.024.448 1.455.291.43.706.766 1.191.964a2.689 2.689 0 002.894-.567 2.61 2.61 0 00.726-1.341 2.581 2.581 0 00-.151-1.514 2.625 2.625 0 00-.978-1.175 2.68 2.68 0 00-3.352.326 2.601 2.601 0 00-.778 1.852zm4.519-5.239a1.82 1.82 0 00.304 1.026c.202.305.491.544.83.687a1.896 1.896 0 002.04-.375 1.823 1.823 0 00.432-2.002 1.845 1.845 0 00-.675-.836 1.887 1.887 0 00-1.032-.326 1.887 1.887 0 00-1.318.54c-.35.344-.549.81-.552 1.298l-.029-.012zm2.089 5.233a2.18 2.18 0 00.371 1.226c.243.364.591.648.999.817a2.262 2.262 0 002.437-.47c.313-.308.527-.7.614-1.128a2.17 2.17 0 00-.125-1.273 2.207 2.207 0 00-.822-.99 2.252 2.252 0 00-2.816.268c-.418.41-.655.968-.658 1.55zm.595 8.667c-.002.437.128.864.373 1.227a2.21 2.21 0 001.002.814 2.255 2.255 0 002.435-.484 2.172 2.172 0 00.465-2.407 2.207 2.207 0 00-.836-.98 2.248 2.248 0 00-1.248-.354 2.246 2.246 0 00-1.572.645c-.418.412-.653.97-.654 1.551l.035-.012zm-.97-19.003c-.001.436.129.863.374 1.226s.593.646 1.001.814c.409.167.858.211 1.292.126a2.24 2.24 0 001.144-.603 2.19 2.19 0 00.611-1.129 2.171 2.171 0 00-.128-1.273 2.212 2.212 0 00-.825-.988 2.26 2.26 0 00-2.817.274c-.417.412-.652.97-.652 1.553zm.875-8.85a2.18 2.18 0 00.372 1.228 2.22 2.22 0 001.001.816 2.26 2.26 0 002.438-.475 2.176 2.176 0 00.482-2.405 2.213 2.213 0 00-.828-.988 2.251 2.251 0 00-2.811.279c-.416.41-.651.965-.654 1.545zm4.167 24.078a2.18 2.18 0 00.374 1.225 2.22 2.22 0 001 .813c.408.168.857.212 1.291.128a2.239 2.239 0 001.144-.601c.313-.308.526-.7.613-1.128a2.17 2.17 0 00-.126-1.273 2.211 2.211 0 00-.822-.99 2.253 2.253 0 00-2.818.272 2.19 2.19 0 00-.656 1.553zm1.828-4.869c0 .435.131.86.376 1.222.244.362.592.645.999.812.408.167.856.21 1.289.127.432-.084.83-.293 1.143-.6a2.172 2.172 0 00.491-2.396 2.205 2.205 0 00-.817-.99 2.252 2.252 0 00-1.237-.377c-.59 0-1.156.23-1.574.64a2.19 2.19 0 00-.658 1.55l-.012.012zm2.917 11.645a1.87 1.87 0 001.024-.312c.303-.202.538-.487.677-.82a1.807 1.807 0 00-.404-1.985 1.874 1.874 0 00-2.012-.398 1.842 1.842 0 00-.831.667c-.205.299-.315.65-.317 1.01a1.812 1.812 0 00.544 1.294 1.865 1.865 0 001.313.533l.006.011zm-5.733 6.854a2.601 2.601 0 00.445 1.458c.29.432.705.77 1.19.97a2.693 2.693 0 002.9-.558c.373-.365.628-.831.734-1.34a2.59 2.59 0 00-.144-1.516 2.625 2.625 0 00-.972-1.182 2.685 2.685 0 00-1.474-.452 2.688 2.688 0 00-1.878.769 2.614 2.614 0 00-.783 1.85h-.018zm-4.893 2.672c.001.434.133.859.379 1.22.246.36.594.64 1.002.806a2.256 2.256 0 002.426-.486 2.166 2.166 0 00.472-2.397c-.17-.4-.458-.742-.825-.982a2.25 2.25 0 00-1.24-.364 2.246 2.246 0 00-1.574.647 2.185 2.185 0 00-.652 1.556h.012zm-1.393-5.55c-.002.52.154 1.028.446 1.46.292.433.707.77 1.194.97a2.692 2.692 0 002.902-.568 2.597 2.597 0 00.576-2.863 2.63 2.63 0 00-.983-1.178 2.684 2.684 0 00-1.48-.44c-.704 0-1.38.276-1.878.767a2.6 2.6 0 00-.777 1.852zm-4.275 6.055c0 .435.131.861.377 1.224.245.362.595.644 1.003.81a2.26 2.26 0 002.433-.48 2.185 2.185 0 00-.344-3.389 2.254 2.254 0 00-2.817.28 2.19 2.19 0 00-.652 1.555zm-.857-5.074c0 .435.131.861.376 1.223a2.23 2.23 0 001.002.811 2.261 2.261 0 002.433-.477 2.175 2.175 0 00.484-2.4 2.21 2.21 0 00-.822-.988 2.255 2.255 0 00-2.819.274 2.186 2.186 0 00-.654 1.557zm-.107-2.937c.441 0 .873-.129 1.24-.37a2.21 2.21 0 00.822-.989 2.187 2.187 0 00-.484-2.4 2.258 2.258 0 00-2.432-.477 2.224 2.224 0 00-1.002.81 2.177 2.177 0 00-.377 1.224c.002.584.238 1.143.656 1.556.418.412.985.645 1.577.646zm-5.162 2.56c-.001.411.122.813.352 1.154.23.342.558.608.942.766a2.125 2.125 0 002.292-.445 2.051 2.051 0 00.458-2.26 2.078 2.078 0 00-.774-.931 2.122 2.122 0 00-2.652.255 2.06 2.06 0 00-.618 1.462zm-.333-4.186c.376 0 .743-.11 1.055-.316a1.858 1.858 0 00.288-2.882 1.925 1.925 0 00-2.07-.406 1.895 1.895 0 00-.852.69 1.853 1.853 0 00.236 2.365c.356.351.839.549 1.343.549zm-10.067 5.596c-.001.436.129.863.374 1.226s.593.646 1.002.814a2.26 2.26 0 002.435-.477 2.182 2.182 0 00-.342-3.39 2.252 2.252 0 00-2.815.276 2.19 2.19 0 00-.654 1.551zm.03-17.84c.442 0 .873-.13 1.24-.371.367-.242.654-.586.822-.989a2.176 2.176 0 00-.483-2.4 2.261 2.261 0 00-2.433-.477 2.224 2.224 0 00-1.002.811 2.176 2.176 0 00.279 2.779c.418.413.985.645 1.577.647zm1.857.329c-.538 0-1.064.157-1.511.452a2.689 2.689 0 00-1.002 1.204 2.649 2.649 0 00.59 2.925c.38.375.865.63 1.393.734.527.104 1.074.05 1.572-.152a2.706 2.706 0 001.22-.989c.299-.441.459-.96.459-1.49a2.673 2.673 0 00-.799-1.897 2.744 2.744 0 00-1.922-.787zm-3.673 2.484c0-.435-.13-.86-.375-1.22a2.22 2.22 0 00-.999-.81 2.258 2.258 0 00-1.287-.124 2.242 2.242 0 00-1.14.6 2.19 2.19 0 00-.609 1.125c-.086.426-.042.868.127 1.27.168.4.454.743.82.985a2.247 2.247 0 002.811-.273 2.18 2.18 0 00.652-1.553zm-3.5-3.524a1.8 1.8 0 00.992-.297 1.76 1.76 0 00.658-.79 1.752 1.752 0 00-.387-1.92 1.81 1.81 0 00-1.947-.382 1.78 1.78 0 00-.801.649 1.747 1.747 0 00.222 2.224 1.8 1.8 0 001.263.516zm-.709-12.684c0 .435.131.86.377 1.223a2.23 2.23 0 001.001.811 2.261 2.261 0 002.433-.477 2.186 2.186 0 00.484-2.4 2.21 2.21 0 00-.822-.989 2.254 2.254 0 00-2.819.274 2.19 2.19 0 00-.654 1.558zm5.995 3.464a2.253 2.253 0 00-1.246.368c-.37.242-.658.587-.827.99a2.17 2.17 0 00-.127 1.278c.087.429.302.822.616 1.13a2.261 2.261 0 002.445.464c.408-.171.755-.458.997-.824a2.182 2.182 0 00-.296-2.769 2.24 2.24 0 00-1.562-.637zm-.399-3.018a2.18 2.18 0 00.374 1.225c.244.363.593.646 1 .814.408.167.857.212 1.291.127a2.243 2.243 0 001.144-.601c.313-.308.526-.7.613-1.128a2.17 2.17 0 00-.126-1.273 2.212 2.212 0 00-.822-.989 2.256 2.256 0 00-2.818.271c-.418.412-.654.97-.656 1.554zm1.53-9.144c0 .349.105.69.301.98.197.289.475.515.802.648a1.809 1.809 0 001.946-.382 1.74 1.74 0 00.387-1.92 1.769 1.769 0 00-.657-.79 1.805 1.805 0 00-2.256.219 1.75 1.75 0 00-.523 1.245zm3.953 33.714c0-.52-.156-1.027-.449-1.459a2.647 2.647 0 00-1.195-.966 2.694 2.694 0 00-2.901.571 2.595 2.595 0 00-.573 2.863c.203.48.545.89.983 1.177a2.688 2.688 0 003.358-.332 2.606 2.606 0 00.777-1.854zm-9.626 2.72c0 .435.131.86.376 1.223.245.362.594.644 1.002.81a2.262 2.262 0 002.433-.477 2.175 2.175 0 00.484-2.4 2.21 2.21 0 00-.822-.988 2.256 2.256 0 00-2.819.274 2.186 2.186 0 00-.654 1.557zm-3.679-4.4c0 .435.131.86.376 1.222.244.36.593.642 1 .809a2.255 2.255 0 002.427-.48 2.174 2.174 0 00.479-2.395 2.207 2.207 0 00-.823-.984 2.249 2.249 0 00-2.807.28 2.185 2.185 0 00-.652 1.549zm-2.608-4.78a2.188 2.188 0 001.379 2.026 2.254 2.254 0 002.424-.48 2.17 2.17 0 00.48-2.393 2.198 2.198 0 00-.82-.985 2.247 2.247 0 00-2.813.276 2.195 2.195 0 00-.65 1.557zm.227-13.559c-.442 0-.874.13-1.241.372a2.198 2.198 0 00-.949 2.262c.087.427.3.82.613 1.127a2.26 2.26 0 002.435.474c.408-.168.756-.45 1.001-.814.244-.363.374-.789.373-1.225a2.187 2.187 0 00-.656-1.553 2.246 2.246 0 00-1.576-.643zm.875-5.602a2.254 2.254 0 00-1.242.368 2.21 2.21 0 00-.825.987 2.177 2.177 0 00.48 2.402 2.262 2.262 0 002.434.48 2.23 2.23 0 001.003-.811c.245-.362.376-.788.376-1.224a2.19 2.19 0 00-.653-1.553 2.255 2.255 0 00-1.573-.65zm2.024-5.333a2.245 2.245 0 00-1.237.375 2.202 2.202 0 00-.818.99 2.17 2.17 0 00.495 2.393 2.254 2.254 0 002.432.462c.406-.169.752-.453.994-.817a2.17 2.17 0 00.366-1.224 2.183 2.183 0 00-.656-1.553 2.246 2.246 0 00-1.576-.643v.018zm3.119-4.786a2.255 2.255 0 00-1.251.36 2.21 2.21 0 00-.835.986 2.173 2.173 0 00-.134 1.279c.085.43.298.825.612 1.135a2.258 2.258 0 002.447.471c.409-.17.757-.457 1-.823a2.18 2.18 0 00.364-1.235 2.196 2.196 0 00-.654-1.553 2.253 2.253 0 00-1.573-.649l.024.03zm6.751-1.844c0-.519-.156-1.027-.449-1.459a2.647 2.647 0 00-1.195-.966 2.695 2.695 0 00-2.901.571 2.595 2.595 0 00-.573 2.863c.203.48.545.89.983 1.177a2.685 2.685 0 003.358-.332 2.606 2.606 0 00.777-1.854zm4.483-3.083a2.181 2.181 0 00-.374-1.225 2.226 2.226 0 00-1.001-.814 2.264 2.264 0 00-1.292-.127 2.24 2.24 0 00-1.144.603 2.19 2.19 0 00-.611 1.13 2.17 2.17 0 00.128 1.273c.17.403.457.747.825.988a2.253 2.253 0 002.815-.276 2.19 2.19 0 00.654-1.552zm.649 41.625a2.255 2.255 0 00-1.242.368 2.21 2.21 0 00-.825.987 2.189 2.189 0 00.48 2.402 2.263 2.263 0 002.434.48 2.23 2.23 0 001.003-.811c.245-.362.376-.788.376-1.224a2.191 2.191 0 00-.655-1.556 2.257 2.257 0 00-1.577-.646h.006zm4.608-43.703a2.179 2.179 0 00-.39-1.213 2.221 2.221 0 00-1.005-.796 2.256 2.256 0 00-2.416.495 2.176 2.176 0 00-.47 2.39c.169.4.455.741.82.981a2.25 2.25 0 002.092.197 2.23 2.23 0 001.206-1.206 2.17 2.17 0 00.163-.848zm1.077 2.378c-.44 0-.871.129-1.237.37a2.18 2.18 0 00-.947 2.255c.086.426.298.817.61 1.124a2.254 2.254 0 002.426.476c.407-.166.755-.447.999-.809.245-.36.376-.785.376-1.22a2.19 2.19 0 00-.654-1.551 2.249 2.249 0 00-1.573-.645zm4.62-3.236a2.181 2.181 0 00-.374-1.225 2.223 2.223 0 00-1.002-.814 2.26 2.26 0 00-2.435.476 2.183 2.183 0 00.342 3.39 2.253 2.253 0 002.815-.276 2.19 2.19 0 00.654-1.55zm3.393 8.151a2.688 2.688 0 00-1.48.44 2.64 2.64 0 00-.983 1.177 2.595 2.595 0 00.573 2.862 2.694 2.694 0 002.901.572 2.647 2.647 0 001.195-.967 2.598 2.598 0 00-.328-3.313 2.68 2.68 0 00-1.878-.77zm2.256-7.81c0-.376-.113-.743-.324-1.055a1.918 1.918 0 00-.864-.698 1.948 1.948 0 00-2.096.414 1.883 1.883 0 00-.413 2.069 1.9 1.9 0 00.711.85 1.94 1.94 0 002.425-.241c.36-.356.561-.837.561-1.34zm.739 3.752c-.442 0-.874.13-1.241.371a2.21 2.21 0 00-.822.989 2.175 2.175 0 00.484 2.4 2.261 2.261 0 002.433.477 2.23 2.23 0 001.002-.811c.245-.362.376-.788.376-1.224a2.192 2.192 0 00-.656-1.555 2.252 2.252 0 00-1.576-.647zm4.631-2.26c0-.376-.113-.743-.324-1.055a1.924 1.924 0 00-.864-.699 1.949 1.949 0 00-2.097.414 1.889 1.889 0 00-.413 2.07c.147.346.394.642.711.85a1.944 1.944 0 002.426-.241c.359-.356.561-.838.561-1.34zm2.578 6.911a2.181 2.181 0 00-.374-1.225 2.226 2.226 0 00-1.001-.814 2.264 2.264 0 00-1.292-.127 2.24 2.24 0 00-1.144.603 2.19 2.19 0 00-.611 1.13 2.17 2.17 0 00.128 1.273c.17.402.457.746.825.988a2.259 2.259 0 002.817-.275c.417-.412.652-.97.652-1.553zm3.387 13.096a2.87 2.87 0 00-.494-1.609 2.928 2.928 0 00-1.318-1.066 2.97 2.97 0 00-3.198.628 2.862 2.862 0 00-.636 3.155 2.9 2.9 0 001.081 1.3 2.96 2.96 0 003.706-.36 2.88 2.88 0 00.859-2.048zm.988 10.341c0 .362.109.715.312 1.015.204.3.493.534.831.673a1.877 1.877 0 002.018-.396 1.8 1.8 0 00.401-1.99 1.832 1.832 0 00-.681-.82 1.872 1.872 0 00-2.338.227 1.816 1.816 0 00-.543 1.291zm4.733-10.341c0-.435-.131-.86-.376-1.222a2.223 2.223 0 00-1.002-.809 2.256 2.256 0 00-2.429.484 2.17 2.17 0 00-.471 2.4c.171.4.459.742.828.982.368.239.801.365 1.242.361a2.246 2.246 0 001.572-.645c.417-.411.653-.97.654-1.551h-.018zm1.137 14.476c-.44 0-.869.13-1.234.372a2.2 2.2 0 00-.818.986 2.168 2.168 0 00-.125 1.268c.086.425.298.816.609 1.123.311.307.707.516 1.138.6a2.244 2.244 0 002.285-.929c.245-.36.377-.784.378-1.218 0-.584-.235-1.144-.654-1.557a2.25 2.25 0 00-1.579-.645zm4.132-9.396c0-.363-.109-.717-.313-1.018a1.85 1.85 0 00-.834-.675 1.88 1.88 0 00-2.024.397 1.818 1.818 0 00.282 2.819c.305.201.664.309 1.031.309a1.873 1.873 0 001.316-.535 1.833 1.833 0 00.542-1.297z" fill="#FBBA00"/><path d="M136.62 41.695c0 .348.105.689.301.978.196.29.475.516.801.65a1.81 1.81 0 001.947-.383 1.76 1.76 0 00.488-.902 1.74 1.74 0 00-.101-1.018 1.764 1.764 0 00-.658-.79 1.804 1.804 0 00-2.255.219 1.75 1.75 0 00-.523 1.246zm-6.84-15.545a2.181 2.181 0 00-.374-1.226 2.23 2.23 0 00-1.002-.813 2.26 2.26 0 00-2.435.476 2.172 2.172 0 00-.483 2.403c.169.402.457.746.825.988a2.253 2.253 0 002.815-.277 2.19 2.19 0 00.654-1.55zm3.798-10.142c0-.358-.108-.71-.31-1.008a1.835 1.835 0 00-.826-.668 1.864 1.864 0 00-2.005.393 1.808 1.808 0 00-.503.93c-.071.351-.035.716.105 1.048.139.331.375.615.677.814a1.858 1.858 0 002.321-.227c.345-.34.539-.8.541-1.282zm6.655.823c0-.436-.131-.862-.376-1.225a2.23 2.23 0 00-1.003-.81 2.262 2.262 0 00-2.434.48 2.189 2.189 0 00-.48 2.401c.17.403.457.746.825.987a2.254 2.254 0 002.817-.278 2.19 2.19 0 00.651-1.555zm2.114 37.713a2.181 2.181 0 00-.374-1.226 2.224 2.224 0 00-1.002-.814 2.26 2.26 0 00-2.435.477 2.18 2.18 0 00-.483 2.403c.17.402.457.746.825.987a2.254 2.254 0 002.815-.276 2.19 2.19 0 00.654-1.551zm5.637 1.362c0-.434-.13-.859-.375-1.22a2.215 2.215 0 00-.999-.81 2.253 2.253 0 00-2.426.477 2.184 2.184 0 00-.61 1.124c-.086.427-.042.868.127 1.27.168.4.454.744.82.985a2.25 2.25 0 002.811-.273 2.18 2.18 0 00.652-1.553zm5.561-48.518a2.177 2.177 0 00-.378-1.219 2.225 2.225 0 00-1.001-.806 2.255 2.255 0 00-2.424.48 2.17 2.17 0 00-.48 2.393c.168.4.454.743.82.984.366.241.796.37 1.236.37a2.253 2.253 0 001.573-.649c.417-.413.652-.97.654-1.553zm2.119 37.936c0-.349-.105-.69-.301-.979a1.78 1.78 0 00-.801-.649 1.81 1.81 0 00-1.947.382 1.749 1.749 0 00.271 2.71 1.804 1.804 0 002.255-.218 1.75 1.75 0 00.523-1.246zm7.62-16.173c0-.436-.131-.861-.376-1.224a2.225 2.225 0 00-1.002-.81 2.261 2.261 0 00-2.433.477 2.175 2.175 0 00-.484 2.4c.169.402.455.746.822.988a2.258 2.258 0 002.096.205 2.227 2.227 0 001.209-1.192 2.17 2.17 0 00.168-.844zm5.013 0a1.97 1.97 0 00-.333-1.112 2.01 2.01 0 00-.903-.74 2.044 2.044 0 00-2.207.425 1.966 1.966 0 00-.438 2.176c.154.364.414.675.748.893.334.218.726.333 1.126.331a2.039 2.039 0 001.426-.585c.378-.373.591-.878.593-1.406l-.012.018zm10.442-5.11a2.18 2.18 0 00-.374-1.224 2.225 2.225 0 00-1-.814 2.263 2.263 0 00-1.291-.128 2.242 2.242 0 00-1.144.602c-.313.308-.526.7-.613 1.127a2.17 2.17 0 00.126 1.273c.169.403.455.747.822.99a2.256 2.256 0 002.816-.273 2.2 2.2 0 00.658-1.552z" fill="#FC0"/><path d="M125.255 33.643a2.66 2.66 0 00-.455-1.492 2.717 2.717 0 00-1.22-.991 2.757 2.757 0 00-1.573-.155 2.731 2.731 0 00-1.394.733 2.67 2.67 0 00-.746 1.374 2.65 2.65 0 00.153 1.551c.206.49.555.91 1.002 1.206a2.743 2.743 0 003.432-.333 2.67 2.67 0 00.801-1.893zm8.37 8.163a2.18 2.18 0 00-.373-1.225 2.229 2.229 0 00-1.002-.814 2.26 2.26 0 00-2.436.476 2.198 2.198 0 00-.611 1.13 2.17 2.17 0 00.129 1.273c.169.402.456.746.824.988a2.256 2.256 0 002.816-.276c.417-.412.652-.97.653-1.552zm9.025-32.592a2.171 2.171 0 00-.373-1.225 2.228 2.228 0 00-1.001-.814 2.259 2.259 0 00-2.435.474c-.312.308-.526.7-.612 1.127a2.17 2.17 0 00.126 1.273c.169.403.455.747.822.99a2.254 2.254 0 002.817-.272 2.18 2.18 0 00.656-1.553zm10.46 19.966c0-.435-.131-.861-.376-1.223a2.224 2.224 0 00-1.002-.811 2.261 2.261 0 00-2.433.477 2.175 2.175 0 00-.484 2.4c.169.402.455.746.822.988a2.257 2.257 0 002.819-.273c.419-.413.654-.974.654-1.558zm8.418 16.226a2.254 2.254 0 00-1.246.371c-.369.243-.656.59-.824.994a2.17 2.17 0 00.499 2.407 2.26 2.26 0 002.447.453 2.22 2.22 0 00.994-.829 2.17 2.17 0 00.356-1.235 2.18 2.18 0 00-.652-1.553 2.241 2.241 0 00-1.574-.643v.035zm5.286-38.723c0-.435-.13-.86-.375-1.22a2.215 2.215 0 00-.999-.81 2.254 2.254 0 00-2.426.477 2.184 2.184 0 00-.61 1.124c-.086.426-.042.868.127 1.27a2.2 2.2 0 00.82.985 2.249 2.249 0 002.811-.273 2.18 2.18 0 00.652-1.553zm2.644 43.045a2.181 2.181 0 00-.374-1.226 2.228 2.228 0 00-1.002-.813 2.26 2.26 0 00-2.435.476 2.172 2.172 0 00-.483 2.403c.17.402.457.746.825.988a2.254 2.254 0 002.815-.276 2.19 2.19 0 00.654-1.552zm4.232-20.554a2.18 2.18 0 00-.364-1.229 2.226 2.226 0 00-.996-.821 2.261 2.261 0 00-2.44.46 2.175 2.175 0 00-.499 2.4c.168.404.453.75.82.994a2.25 2.25 0 002.82-.27 2.19 2.19 0 00.653-1.557l.006.023zm5.186 5.538a2.87 2.87 0 00-.485-1.61 2.922 2.922 0 00-1.311-1.072 2.967 2.967 0 00-1.694-.171 2.94 2.94 0 00-1.504.786 2.858 2.858 0 00-.643 3.15c.221.53.596.982 1.079 1.3a2.957 2.957 0 003.702-.36 2.889 2.889 0 00.856-2.046v.023z" fill="#FFE900"/><path d="M50.793 24.424a8.75 8.75 0 00-5.305 1.456l1.43-6.994h12.126v-3.811H43.536l-2.923 15.591 3.804.24.149-.193a6.244 6.244 0 012.358-1.922 6.337 6.337 0 013-.591c3.649 0 6.102 2.349 6.102 5.872a5.674 5.674 0 01-.409 2.315 5.739 5.739 0 01-1.314 1.96c-.57.556-1.25.991-2 1.276a5.893 5.893 0 01-2.35.38c-2.923 0-5.09-1.761-5.536-4.369h-4.53c.35 4.91 4.238 8.063 10.024 8.063 6.34 0 10.77-4.11 10.77-9.948 0-5.579-3.97-9.325-9.888-9.325zm29.271 10.435c0 3.03-2.38 5.144-5.804 5.144-3.423 0-5.769-2.131-5.769-5.185 0-2.936 2.382-5.033 5.68-5.033 3.524 0 5.893 2.038 5.893 5.074zM78.97 22.315c0 2.35-1.834 3.894-4.667 3.894-2.834 0-4.763-1.527-4.763-3.894 0-2.366 1.864-3.899 4.763-3.899s4.667 1.492 4.667 3.9zm1.131 5.526a6.554 6.554 0 002.557-2.483 6.437 6.437 0 00.86-3.436c0-4.328-3.792-7.358-9.215-7.358-5.424 0-9.305 3.089-9.305 7.517a6.31 6.31 0 00.897 3.378 6.429 6.429 0 002.568 2.406 7.517 7.517 0 00-3.386 2.83 7.366 7.366 0 00-1.186 4.217c0 5.285 4.167 8.809 10.305 8.809 6.393 0 10.519-3.524 10.519-9.038 0-3.189-1.584-5.532-4.59-6.818l-.024-.024zm14.978-8.955h12.127v-3.811H91.679L88.75 30.666l3.804.24.15-.193a6.244 6.244 0 012.357-1.922 6.337 6.337 0 013-.591c3.649 0 6.102 2.349 6.102 5.872a5.662 5.662 0 01-.417 2.303 5.723 5.723 0 01-1.313 1.948 5.825 5.825 0 01-1.991 1.27 5.894 5.894 0 01-2.34.381c-2.916 0-5.09-1.762-5.536-4.37h-4.518c.35 4.91 4.238 8.064 10.025 8.064 6.34 0 10.769-4.111 10.769-9.948 0-5.58-3.971-9.326-9.888-9.326a8.75 8.75 0 00-5.304 1.457l1.428-6.994v.029z" fill="#E72C2A"/><path d="M0 15.075v28.117h36.22v-5.25l-7.252-3.729-8.543 4.393 1.614-9.338-6.888-6.624 9.53-1.38 3.126-6.19H0z" fill="#FFE900"/><path d="M237.675 43.615c-8.436 0-14.799-6.196-14.799-14.405a14.316 14.316 0 011.136-5.617 14.49 14.49 0 013.252-4.745 14.72 14.72 0 014.861-3.134 14.878 14.878 0 015.711-1.033c8.436 0 14.8 6.19 14.8 14.4a14.345 14.345 0 01-1.126 5.627 14.513 14.513 0 01-3.25 4.758 14.737 14.737 0 01-4.865 3.142 14.886 14.886 0 01-5.72 1.036v-.03zm.078-24.295c-5.579 0-9.788 4.217-9.788 9.813 0 5.597 4.209 9.813 9.788 9.813 5.578 0 9.787-4.222 9.787-9.813 0-5.59-4.203-9.813-9.787-9.813zm-33.106 24.295c-8.436 0-14.8-6.196-14.8-14.405a14.35 14.35 0 011.135-5.613 14.49 14.49 0 013.247-4.743 14.727 14.727 0 014.855-3.135 14.882 14.882 0 015.706-1.038c7.144 0 10.555 4.07 10.715 4.24l.137.165-3.572 3.523-.166-.211a9.687 9.687 0 00-3.258-2.285 9.801 9.801 0 00-3.916-.793c-5.584 0-9.787 4.235-9.787 9.849s4.203 9.854 9.787 9.854c4.685 0 8.102-2.872 8.704-7.312v-.058h-9.954v-4.505h15.193v2.42c0 8.004-6.061 14.047-14.044 14.047h.018zm76.29-.4V15.029h9.745c9.043 0 15.604 5.872 15.604 14.006 0 8.133-6.775 14.182-15.77 14.182h-9.579zm5.09-4.427h4.762c6.019 0 10.389-4.064 10.389-9.655 0-5.59-4.37-9.654-10.389-9.654h-4.762v19.309zm-29.171 4.428V15.028h5.096v23.678h14.639v4.51h-19.735z" fill="#E72C2A"/></g><defs><clipPath id="clip0_26_10262"><path fill="#fff" d="M0 0h306.286v58.261H0z"/></clipPath></defs></svg>