<svg><symbol fill="none" xmlns="http://www.w3.org/2000/svg" viewBox="0 0 129 57" id="sale"><path fill-rule="evenodd" clip-rule="evenodd" d="M55.94 48.66C58.31 53.436 65.476 57 73.114 57l.018-.036h.742c5.683-.16 11.22-2.405 14.478-5.845 1.828-1.942 2.896-4.188 3.15-6.576 2.044 1.034 3.836 1.515 5.52 1.515 1.085 0 1.972-.196 2.696-.392 2.335-.624 4.054-1.64 6.732-5.346a18.908 18.908 0 006.679 1.194c6.099 0 11.745-2.834 14.406-7.217 1.864-3.101 1.954-6.88.235-10.372-2.172-4.384-6.877-7.485-12.633-8.358-3.402-8.197-12.125-14.292-21.41-14.88C84.915.117 75.902 4.215 71.83 8.42c-1.72-4.133-4.635-8-11.548-8.393-5.772-.337-11.365 2.478-14.17 7.004-5.285-3.136-11.058-3.457-17.248-.927-4.289 1.729-8.198 6.042-7.909 10.978-3.022-1.105-6.37-.624-8.107 1.212-1.05 1.122-2.498 3.314-1.466 6.22C4.396 25.19.686 28.058.052 33.28c-.271 2.227.525 4.49 2.226 6.38 3.439 3.795 9.773 5.506 17.338 4.562.706 3.992 4.651 6.362 8.018 7.217 1.14.303 2.334.446 3.51.446 3.892 0 7.548-1.587 10.263-4.384 1.357 2.388 4.687 4.063 7.528 4.17h.308c2.28 0 4.47-.98 6.696-3.012z" fill="#fff"/></symbol><symbol fill="none" xmlns="http://www.w3.org/2000/svg" viewBox="0 0 129 57" id="sale-transparent"><path d="M73.115 57c-7.638 0-14.805-3.564-17.176-8.34-2.226 2.032-4.416 3.012-6.696 3.012h-.308c-2.841-.107-6.171-1.782-7.529-4.17-2.714 2.797-6.37 4.383-10.261 4.383-1.177 0-2.371-.142-3.511-.445-3.367-.855-7.312-3.225-8.018-7.217-7.565.944-13.9-.767-17.338-4.562C.577 37.77-.219 35.508.052 33.28c.634-5.222 4.344-8.09 11.33-8.768-1.032-2.905.416-5.097 1.466-6.22 1.737-1.835 5.085-2.316 8.107-1.211-.289-4.937 3.62-9.25 7.91-10.978 6.189-2.53 11.962-2.21 17.247.927C48.917 2.505 54.51-.311 60.282.027c6.914.393 9.828 4.26 11.547 8.394C75.903 4.215 84.915.117 93.73.687c9.284.588 18.007 6.683 21.409 14.88 5.756.873 10.461 3.974 12.633 8.358 1.719 3.493 1.629 7.27-.235 10.372-2.661 4.383-8.307 7.217-14.406 7.217-2.299 0-4.543-.392-6.679-1.194-2.678 3.707-4.397 4.722-6.732 5.346-.724.196-1.61.392-2.697.392-1.683 0-3.475-.481-5.52-1.515-.253 2.388-1.32 4.634-3.149 6.576-3.257 3.44-8.795 5.685-14.478 5.845h-.742l-.018.036zM56.283 46.183s.145 0 .217.018c.308.071.561.32.652.623 1.393 4.776 8.886 8.626 16.65 8.376 5.194-.16 10.262-2.174 13.194-5.293 1.882-1.978 2.823-4.33 2.715-6.807 0-.32.162-.624.434-.802.29-.16.633-.16.923 0 2.335 1.354 4.217 1.978 5.918 1.978.869 0 1.61-.16 2.226-.339 1.792-.48 3.276-1.122 6.135-5.22.236-.357.706-.482 1.104-.322a17.401 17.401 0 006.66 1.319c5.394 0 10.552-2.548 12.85-6.344 1.557-2.584 1.629-5.738.163-8.679-1.973-3.974-6.37-6.772-11.764-7.449a.887.887 0 01-.724-.57c-3.004-7.805-11.239-13.668-20.034-14.22-9.538-.607-18.678 4.561-21.338 8.214a.901.901 0 01-.869.357.906.906 0 01-.724-.588c-1.538-4.277-3.873-8.287-10.497-8.643-5.284-.285-10.587 2.512-12.867 6.772a.953.953 0 01-.471.41c-.271.106-.76.142-.995-.018-4.96-3.226-10.353-3.618-16.27-1.212-3.258 1.319-7.928 5.382-6.57 10.639a.868.868 0 01-.326.926.917.917 0 01-.995.054c-2.57-1.48-6.01-1.39-7.475.143-1.05 1.104-2.027 2.94-.652 5.363a.897.897 0 010 .856.912.912 0 01-.742.463c-9.067.5-10.587 4.402-10.95 7.289-.198 1.71.435 3.475 1.793 4.972 3.113 3.457 9.41 4.936 16.65 3.849a.96.96 0 01.724.196c.199.16.326.41.326.66.126 3.6 3.71 5.773 6.75 6.54.996.25 2.027.374 3.059.374 3.837 0 7.438-1.782 9.881-4.883a.908.908 0 011.611.41c.308 2.067 3.403 4.134 6.37 4.259h.236c2.081 0 4.18-1.123 6.37-3.44a.945.945 0 01.652-.285v.054z" fill="#BC1A1D"/></symbol></svg>