<svg width="71" height="70" fill="none" xmlns="http://www.w3.org/2000/svg"><mask id="path-1-inside-1_77_274" fill="#fff"><path d="M70.5 35c0 19.33-15.67 35-35 35S.5 54.33.5 35s15.67-35 35-35 35 15.67 35 35z"/></mask><path d="M69.2 35c0 18.612-15.088 33.7-33.7 33.7v2.6c20.048 0 36.3-16.252 36.3-36.3h-2.6zM35.5 68.7C16.888 68.7 1.8 53.612 1.8 35H-.8c0 20.048 16.252 36.3 36.3 36.3v-2.6zM1.8 35c0-18.612 15.088-33.7 33.7-33.7v-2.6C15.452-1.3-.8 14.952-.8 35h2.6zM35.5 1.3c18.612 0 33.7 15.088 33.7 33.7h2.6c0-20.048-16.252-36.3-36.3-36.3v2.6z" fill="#000" mask="url(#path-1-inside-1_77_274)"/><path d="M43.86 47.666c.166-.163.297-.361.383-.58l4.382-22.872c0-1.526-2.023-.605-2.023-.605L21.993 33.6s-1.165.413-1.07 1.174c.089.766 1.04 1.114 1.04 1.114l6.189 2.155 14.862-9.772s.857-.541.83 0c0 0 .153.096-.31.54-.456.444-11.674 10.881-11.674 10.881l-.015.139-.025-.02-.767 7.013a.674.674 0 00.655-.091l4-3.772 6.234 4.95a1.595 1.595 0 001.917-.245z" fill="#000"/></svg>