<svg width="71" height="70" fill="none" xmlns="http://www.w3.org/2000/svg"><mask id="path-1-inside-1_77_262" fill="#fff"><path d="M70.875 35c0 19.33-15.67 35-35 35s-35-15.67-35-35 15.67-35 35-35 35 15.67 35 35z"/></mask><path d="M69.575 35c0 18.612-15.088 33.7-33.7 33.7v2.6c20.048 0 36.3-16.252 36.3-36.3h-2.6zm-33.7 33.7c-18.612 0-33.7-15.088-33.7-33.7h-2.6c0 20.048 16.252 36.3 36.3 36.3v-2.6zM2.175 35c0-18.612 15.088-33.7 33.7-33.7v-2.6C15.827-1.3-.425 14.952-.425 35h2.6zm33.7-33.7c18.612 0 33.7 15.088 33.7 33.7h2.6c0-20.048-16.252-36.3-36.3-36.3v2.6z" fill="#000" mask="url(#path-1-inside-1_77_262)"/><path fill-rule="evenodd" clip-rule="evenodd" d="M48.262 25.429a3.805 3.805 0 012.677 2.694c.633 2.377.633 7.336.633 7.336s0 4.958-.633 7.335a3.805 3.805 0 01-2.677 2.695c-2.361.636-11.83.636-11.83.636s-9.47 0-11.83-.636a3.804 3.804 0 01-2.678-2.695c-.632-2.377-.632-7.335-.632-7.335s0-4.96.632-7.336a3.804 3.804 0 012.678-2.694c2.36-.637 11.83-.637 11.83-.637s9.469 0 11.83.637zm-7.013 10.03l-7.914 4.502v-9.005l7.914 4.503z" fill="#000"/></svg>